<?xml version="1.0" encoding="utf-8"?>
<!-- Generator: Adobe Illustrator 15.1.0, SVG Export Plug-In . SVG Version: 6.00 Build 0)  -->
<!DOCTYPE svg PUBLIC "-//W3C//DTD SVG 1.1//EN" "http://www.w3.org/Graphics/SVG/1.1/DTD/svg11.dtd">
<svg version="1.1"
	 id="svg2380" text-rendering="geometricPrecision" image-rendering="optimizeQuality" shape-rendering="geometricPrecision" inkscape:output_extension="org.inkscape.output.svg.inkscape" sodipodi:docname="Suomen_maakunnat.svg" sodipodi:version="0.32" xmlns:sodipodi="http://sodipodi.sourceforge.net/DTD/sodipodi-0.dtd" inkscape:version="0.48.0 r9654" xmlns:dc="http://purl.org/dc/elements/1.1/" xmlns:cc="http://creativecommons.org/ns#" xmlns:rdf="http://www.w3.org/1999/02/22-rdf-syntax-ns#" xmlns:inkscape="http://www.inkscape.org/namespaces/inkscape" xmlns:svg="http://www.w3.org/2000/svg"
	 xmlns="http://www.w3.org/2000/svg" xmlns:xlink="http://www.w3.org/1999/xlink" x="0px" y="0px" width="16.77px"
	 height="34.907px" viewBox="0 0 16.77 34.907" enable-background="new 0 0 16.77 34.907" xml:space="preserve">
<g id="Layer_x0020_1">
	<g id="_51675968">
		<polygon id="_51757480" fill="#0028FF" points="1.623,3.2 1.875,2.954 2.231,3.23 2.287,3.032 2.176,2.74 2.646,2.378 
			3.097,2.534 3.859,4.08 3.836,4.454 4.03,4.373 4.364,4.615 4.712,4.652 4.788,4.808 5.406,4.558 5.526,4.347 5.752,4.228 
			6.94,5.091 7.006,4.954 7.195,4.955 7.163,4.566 7.639,4.042 7.86,4.099 8.23,1.716 8.169,1.541 8.833,0.558 9.141,0.45 
			9.68,0.591 10.262,0.052 10.43,0.107 10.6,0 11.19,0.603 11.211,0.808 12.162,1.277 12.483,2.089 11.916,2.824 11.99,3.583 
			11.405,4.078 11.762,4.077 11.85,4.226 11.465,5.298 11.733,6.408 12.52,6.728 13.033,7.78 13.537,8.156 12.348,10.917 
			14.069,14.98 13.86,15 13.553,15.204 13.668,15.397 13.43,16.476 13.713,16.503 13.803,16.605 13.709,16.796 13.785,16.897 
			13.703,17.068 13.494,17.138 13.436,17.357 13.598,17.978 14.147,18.088 14.098,18.263 14.213,18.409 14.205,18.625 
			14.086,18.732 14.254,19.431 14.844,19.834 14.959,20.372 14.586,21.34 14.237,21.59 16.131,23.183 16.256,23.618 16.639,23.929 
			16.77,24.26 15.936,26.407 15.731,26.488 13.324,30.181 12.67,30.584 12.44,31.17 12.215,31.219 11.799,31.584 11.721,31.797 
			11.133,32.362 11.129,32.472 11.018,32.545 10.885,32.459 10.832,32.5 10.735,32.779 10.541,32.795 10.471,32.758 10.33,32.874 
			10.233,32.726 9.666,32.594 9.541,32.722 9.545,32.922 9.5,33.004 9.373,33 9.227,32.856 9.143,32.933 9.033,32.937 8.965,32.866 
			8.893,32.915 8.74,32.917 8.565,33.086 8.484,33.084 8.426,32.961 8.319,32.967 8.33,33.127 8.274,33.219 8.207,33.226 
			7.865,32.818 7.85,32.907 8.083,33.34 8.023,33.368 7.94,33.327 7.887,33.344 7.897,33.481 7.84,33.502 7.749,33.316 
			7.704,33.353 7.754,33.515 7.708,33.575 7.619,33.519 7.538,33.607 7.485,33.594 7.304,33.265 7.13,33.286 7.126,33.429 
			7.06,33.513 6.585,33.577 6.477,33.767 6.36,33.731 6.377,33.868 6.259,33.967 6.237,33.84 6.185,33.922 6.031,33.918 
			5.921,33.844 5.63,33.948 5.573,33.892 5.55,34.054 5.231,34.456 5.127,34.448 5.269,34.263 5.202,34.226 5.127,34.292 
			5.075,34.292 5.085,34.083 3.919,34.413 3.948,34.513 3.877,34.567 3.567,34.575 3.482,34.513 3.351,34.497 3.242,34.616 
			3.242,34.695 3.102,34.815 2.604,34.907 2.528,34.812 2.599,34.732 2.9,34.625 2.959,34.551 2.989,34.342 2.937,34.26 
			2.875,34.31 2.871,34.484 2.82,34.534 2.626,34.5 2.521,34.361 2.546,34.233 2.668,34.226 2.768,34.279 2.819,33.842 
			2.646,33.739 2.603,33.508 2.922,33.12 2.862,33.017 2.227,33.39 2.119,33.292 1.948,33.295 1.948,33.193 2.109,32.937 
			2.011,32.862 1.949,32.915 1.539,32.995 1.432,32.892 1.345,32.885 1.363,32.659 1.324,32.627 1.229,32.69 1.11,32.583 
			1.145,32.538 1.226,32.542 1.23,32.456 1.143,32.372 0.731,32.422 0.739,32.334 0.818,32.224 0.904,32.234 0.979,32.04 
			0.905,32.006 0.686,32.125 0.631,32.359 0.509,32.37 0.462,32.167 0.308,32.03 0.104,31.19 0.123,31.129 0.158,31.108 
			0.175,31.051 0.011,30.952 0,30.89 0.146,30.862 0.151,30.777 0.08,30.702 0.121,30.657 0.201,30.652 0.272,30.792 0.346,30.851 
			0.37,30.767 0.251,30.644 0.204,30.383 0.294,30.334 0.344,30.411 0.499,29.801 0.581,29.858 0.622,29.804 0.665,29.467 
			0.554,29.206 0.574,29.172 0.625,29.157 0.702,29.185 0.762,29.174 0.722,29.079 0.6,29.013 0.589,28.926 0.803,28.967 
			0.798,28.92 0.65,28.706 0.683,28.644 0.743,28.649 0.839,28.758 0.912,28.76 0.625,27.969 0.656,27.907 0.74,27.898 
			0.746,27.847 0.681,27.795 0.641,27.54 0.542,27.478 0.429,27.228 0.585,26.67 0.715,26.532 0.698,26.445 0.535,26.379 
			0.535,26.256 0.646,26.111 0.654,26.034 0.416,26.022 0.348,25.913 0.412,25.654 0.362,25.599 0.493,25.222 0.483,25.151 
			0.425,25.109 0.353,25.17 0.311,25.122 0.346,24.897 0.469,24.772 0.48,24.676 0.406,24.592 0.418,24.542 0.541,24.547 
			0.605,24.481 0.637,24.286 0.755,24.245 0.764,24.304 0.887,24.29 0.933,24.243 0.918,24.127 1.032,24.021 1.043,23.892 
			0.995,23.788 0.881,23.702 0.933,23.62 1.04,23.692 1.11,23.668 1.208,23.696 1.265,23.672 1.231,23.588 1.122,23.497 
			1.11,23.411 1.2,23.295 1.208,23.06 1.296,22.972 1.35,23.127 1.741,23.013 2.118,23.149 2.259,23.116 2.348,22.948 2.467,22.946 
			2.517,22.829 2.298,22.388 2.341,22.333 2.424,22.327 2.479,22.092 2.553,22.051 2.624,22.147 2.665,21.965 2.763,21.896 
			2.774,21.842 2.95,21.719 2.971,21.625 3.103,21.542 3.088,21.239 3.303,21.008 3.445,21.01 3.509,21.088 3.581,21.086 
			3.645,20.995 4.165,20.969 4.176,20.472 4.264,20.411 4.393,20.534 4.495,20.515 4.508,20.258 4.875,19.76 4.957,19.816 
			5.024,19.78 5.026,19.62 5.553,19.042 5.563,18.965 5.699,18.86 5.811,18.392 6.019,18.247 6.074,17.958 6.208,17.943 
			6.333,17.79 6.566,17.788 6.668,17.707 6.868,17.708 7.082,17.833 7.102,17.947 7.198,17.956 7.254,17.905 7.211,17.777 
			6.999,17.562 6.987,17.47 7.013,17.398 7.158,17.41 7.315,17.537 7.384,17.541 7.394,17.478 7.29,17.375 7.198,17.042 
			7.064,16.964 7.017,16.861 7.111,16.734 7.112,16.394 7.053,16.286 7.121,16.202 7.12,16.042 7.209,15.948 7.221,15.814 
			7.018,15.451 6.966,15.498 6.891,15.498 6.884,15.356 6.793,15.261 6.697,15.271 6.607,15.155 6.455,15.132 6.378,15.194 
			6.289,15.203 6.246,15.065 6.136,15.136 6.078,15.07 6.158,14.903 6.086,14.796 5.86,14.712 5.754,14.585 5.669,14.72 
			5.549,14.735 5.226,13.46 5.005,13.247 4.92,12.823 4.971,12.693 4.924,12.511 5.041,12.14 5.235,11.974 5.272,11.362 
			5.461,11.151 4.945,9.956 4.957,9.614 5.214,9.478 5.156,9.281 5.234,9.108 4.934,9.056 4.807,8.828 4.962,7.587 5.176,7.286 
			4.889,6.986 4.823,6.675 4.667,6.698 4.6,6.198 3.261,5.429 3.163,5.144 2.921,5.027 2.826,4.788 2.568,4.708 2.212,3.972 
			1.965,3.905 1.947,3.618 		"/>
	</g>
</g>
</svg>
