<?xml version="1.0" encoding="utf-8"?>
<!-- Generator: Adobe Illustrator 15.1.0, SVG Export Plug-In . SVG Version: 6.00 Build 0)  -->
<!DOCTYPE svg PUBLIC "-//W3C//DTD SVG 1.1//EN" "http://www.w3.org/Graphics/SVG/1.1/DTD/svg11.dtd">
<svg version="1.1"
	 id="svg2380" text-rendering="geometricPrecision" image-rendering="optimizeQuality" shape-rendering="geometricPrecision" inkscape:output_extension="org.inkscape.output.svg.inkscape" sodipodi:docname="Suomen_maakunnat.svg" sodipodi:version="0.32" xmlns:sodipodi="http://sodipodi.sourceforge.net/DTD/sodipodi-0.dtd" inkscape:version="0.48.0 r9654" xmlns:dc="http://purl.org/dc/elements/1.1/" xmlns:cc="http://creativecommons.org/ns#" xmlns:rdf="http://www.w3.org/1999/02/22-rdf-syntax-ns#" xmlns:inkscape="http://www.inkscape.org/namespaces/inkscape" xmlns:svg="http://www.w3.org/2000/svg"
	 xmlns="http://www.w3.org/2000/svg" xmlns:xlink="http://www.w3.org/1999/xlink" x="0px" y="0px" width="39.102px" height="20.5px"
	 viewBox="0 0 39.102 20.5" enable-background="new 0 0 39.102 20.5" xml:space="preserve">
<g id="Ebene_x0020_1">
	<polygon fill="#0028FF" points="20.729,19.229 22.215,19.652 22.772,19.566 23.795,19.78 24.138,20.132 25.561,20.061 26.323,20.5 
		26.506,20.014 27.659,19.534 27.716,19.198 28.311,18.514 28.515,18.709 28.839,18.286 30.857,18.286 31.117,18.6 31.95,17.829 
		33.27,17.775 34.002,18.128 34.119,17.79 33.797,17.499 33.758,16.745 34.111,16.706 35.281,15.786 35.305,15.395 36.084,15.409 
		36.232,15.268 36.084,15.073 36.279,14.757 36.162,14.491 36.336,14.223 35.941,13.838 36.217,13.249 35.949,12.753 35.981,12.266 
		36.679,12.25 37.096,11.504 37.12,11.159 37.01,10.875 36.704,10.538 35.776,10.216 36.02,9.767 36.303,9.485 36.727,9.454 
		37.12,9.61 37.395,9.956 39.1,9.831 38.692,8.557 39.086,8.337 38.982,7.387 38.842,6.687 38.283,6.184 37.837,5.1 37.663,4.958 
		37.638,3.937 38.032,3.34 37.859,2.719 37.788,1.909 36.609,1.918 36.587,1.54 35.391,1.423 35.187,1.926 33.56,1.918 
		32.177,0.959 31.841,1.196 29.49,0.165 28.995,0.495 28.965,0.181 28.013,0 27.903,1.825 27.133,1.839 26.749,2.538 26.717,3.426 
		25.452,3.049 25.051,3.536 23.322,3.325 23.3,2.829 22.246,2.051 22.042,2.428 22.003,3.694 21.608,4.063 20.516,3.624 
		20.289,3.717 20.007,5.116 19.243,5.894 18.261,5.956 17.766,6.514 17.35,6.507 16.682,7.394 17.287,8.149 17.365,8.848 
		18.096,9.241 17.483,10.097 17.688,10.358 18.065,10.168 18.473,10.883 18.261,11.189 18.215,11.795 17.759,12.133 16.807,11.402 
		16.976,11.051 16.551,10.584 15.936,10.589 15.77,10.891 15.448,10.898 15.079,10.413 14.183,10.452 14.159,10.153 13.688,10.38 
		13.853,11.034 12.542,10.948 11.771,11.159 10.883,11.143 10.812,11.755 9.957,11.771 9.957,12.307 9.249,12.354 8.903,12.62 
		8.863,12.354 7.661,12.604 7.111,11.78 7.056,11.473 6.483,11.607 5.627,11.167 5.445,11.386 4.895,11.135 4.895,12.157 
		4.031,13.225 3.426,13.334 3.631,12.7 3.449,12.525 3.017,12.667 2.978,12.188 2.436,11.48 1.697,11.095 1.588,10.859 
		1.273,10.836 0.935,11.566 0.652,11.905 0.582,12.636 0.001,13.256 0.385,14.042 0.432,15 1.611,15.331 1.618,15.967 3.017,16.7 
		3.449,16.493 3.512,16.07 3.913,16.046 4.299,15.652 4.809,16.055 4.817,16.753 5.304,16.761 5.767,16.573 6.262,16.958 
		6.27,17.357 7.559,17.382 8.503,16.032 9.413,15.825 9.713,16.032 10.026,15.7 10.388,15.842 10.758,15.7 11.527,15.943 
		13.413,15.189 14.026,15.229 13.405,15.793 13.885,16.691 14.152,16.659 14.341,16.98 14.324,17.43 14.662,17.445 14.804,17.995 
		15.778,18.466 16.407,18.458 17.257,18.954 18.718,19.023 19.378,19.284 	"/>
</g>
</svg>
